<svg width="22" height="26" viewBox="0 0 22 26" fill="none" xmlns="http://www.w3.org/2000/svg">
<path d="M18.8438 25H3.1562C2.96517 25 2.78086 24.9106 2.63852 24.7488C2.49618 24.5871 2.40581 24.3644 2.38472 24.1233L1.00475 8.3552C0.992692 8.21745 1.00366 8.07802 1.03693 7.94601C1.0702 7.814 1.12503 7.69239 1.19784 7.58912C1.27065 7.48584 1.35979 7.40322 1.45946 7.34666C1.55912 7.2901 1.66706 7.26086 1.77623 7.26086H20.2238C20.3329 7.26086 20.4409 7.2901 20.5405 7.34666C20.6402 7.40322 20.7294 7.48584 20.8022 7.58912C20.875 7.69239 20.9298 7.814 20.9631 7.94601C20.9963 8.07802 21.0073 8.21745 20.9953 8.3552L19.6153 24.1233C19.5942 24.3644 19.5038 24.5871 19.3615 24.7488C19.2191 24.9106 19.0348 25 18.8438 25Z" stroke="black" stroke-linecap="round" stroke-linejoin="round"/>
<path d="M6.50977 10.3913C6.50977 7.90058 6.95226 5.51186 7.73992 3.75065C8.52757 1.98944 9.59586 1 10.7098 1C11.8237 1 12.892 1.98944 13.6796 3.75065C14.4673 5.51186 14.9098 7.90058 14.9098 10.3913" stroke="black" stroke-linecap="round" stroke-linejoin="round"/>
</svg>
