<svg width="32" height="32" viewBox="0 0 32 32" fill="none" xmlns="http://www.w3.org/2000/svg">
<g opacity="0.7">
<path d="M23.8438 28H8.1562C7.96517 28 7.78086 27.9106 7.63852 27.7488C7.49618 27.5871 7.40581 27.3644 7.38472 27.1233L6.00475 11.3552C5.99269 11.2174 6.00366 11.078 6.03693 10.946C6.0702 10.814 6.12503 10.6924 6.19784 10.5891C6.27065 10.4858 6.35979 10.4032 6.45946 10.3467C6.55912 10.2901 6.66706 10.2609 6.77623 10.2609H25.2238C25.3329 10.2609 25.4409 10.2901 25.5405 10.3467C25.6402 10.4032 25.7294 10.4858 25.8022 10.5891C25.875 10.6924 25.9298 10.814 25.9631 10.946C25.9963 11.078 26.0073 11.2174 25.9953 11.3552L24.6153 27.1233C24.5942 27.3644 24.5038 27.5871 24.3615 27.7488C24.2191 27.9106 24.0348 28 23.8438 28Z" stroke="black" stroke-linecap="round" stroke-linejoin="round"/>
<path d="M11.5098 13.3913C11.5098 10.9006 11.9523 8.51186 12.7399 6.75065C13.5276 4.98944 14.5959 4 15.7098 4C16.8237 4 17.892 4.98944 18.6796 6.75065C19.4673 8.51186 19.9098 10.9006 19.9098 13.3913" stroke="black" stroke-linecap="round" stroke-linejoin="round"/>
</g>
</svg>
