<svg width="32" height="32" viewBox="0 0 32 32" fill="none" xmlns="http://www.w3.org/2000/svg">
<path d="M23.8438 27.9999H8.1562C7.96517 27.9999 7.78086 27.9125 7.63852 27.7545C7.49618 27.5964 7.40581 27.3788 7.38472 27.1433L6.00475 11.7358C5.99269 11.6012 6.00366 11.465 6.03693 11.336C6.0702 11.207 6.12503 11.0882 6.19784 10.9872C6.27065 10.8863 6.35979 10.8056 6.45946 10.7503C6.55912 10.6951 6.66706 10.6665 6.77623 10.6665H25.2238C25.3329 10.6665 25.4409 10.6951 25.5405 10.7503C25.6402 10.8056 25.7294 10.8863 25.8022 10.9872C25.875 11.0882 25.9298 11.207 25.9631 11.336C25.9963 11.465 26.0073 11.6012 25.9953 11.7358L24.6153 27.1433C24.5942 27.3788 24.5038 27.5964 24.3615 27.7545C24.2191 27.9125 24.0348 27.9999 23.8438 27.9999Z" stroke="#A1D551" stroke-linecap="round" stroke-linejoin="round"/>
<path d="M11.625 14C11.625 11.3479 12.0859 8.80431 12.9064 6.92894C13.7269 5.05357 14.8397 4 16 4C17.1603 4 18.2731 5.05357 19.0936 6.92894C19.9141 8.80431 20.375 11.3479 20.375 14" stroke="#A1D551" stroke-linecap="round" stroke-linejoin="round"/>
</svg>
