<svg width="22" height="24" viewBox="0 0 22 24" fill="none" xmlns="http://www.w3.org/2000/svg">
<path d="M18.479 23.0399H3.11212C2.925 23.0399 2.74444 22.9596 2.60502 22.8145C2.46559 22.6694 2.37707 22.4695 2.35641 22.2532L1.00465 8.10411C0.992841 7.9805 1.00358 7.85538 1.03618 7.73693C1.06877 7.61848 1.12248 7.50935 1.1938 7.41668C1.26511 7.32401 1.35244 7.24987 1.45006 7.19912C1.54769 7.14836 1.65343 7.12213 1.76036 7.12213H19.8307C19.9377 7.12213 20.0434 7.14836 20.141 7.19912C20.2386 7.24987 20.326 7.32401 20.3973 7.41668C20.4686 7.50935 20.5223 7.61848 20.5549 7.73693C20.5875 7.85538 20.5982 7.9805 20.5864 8.10411L19.2347 22.2532C19.214 22.4695 19.1255 22.6694 18.9861 22.8145C18.8466 22.9596 18.6661 23.0399 18.479 23.0399Z" stroke="black" stroke-linecap="round" stroke-linejoin="round"/>
<path d="M6.50977 10.1833C6.50977 7.74775 6.96128 5.41194 7.76497 3.68973C8.56867 1.96753 9.65872 1 10.7953 1C11.9319 1 13.022 1.96753 13.8257 3.68973C14.6294 5.41194 15.0809 7.74775 15.0809 10.1833" stroke="black" stroke-linecap="round" stroke-linejoin="round"/>
<path d="M8.75284 19H13.3409V18.2188H9.96023V18.1619L11.5938 16.4148C12.8438 15.076 13.2131 14.451 13.2131 13.6449C13.2131 12.5227 12.304 11.6278 11.0256 11.6278C9.75071 11.6278 8.78125 12.4943 8.78125 13.7727H9.61932C9.61932 12.9453 10.1555 12.3949 10.9972 12.3949C11.7855 12.3949 12.3892 12.8778 12.3892 13.6449C12.3892 14.3161 11.995 14.8132 11.1534 15.733L8.75284 18.3608V19Z" fill="black"/>
</svg>
