<svg width="161" height="161" viewBox="0 0 161 161" fill="none" xmlns="http://www.w3.org/2000/svg">
<circle cx="80.5" cy="80.5" r="80.5" fill="#F8F8F9"/>
<circle cx="80.5" cy="80.5" r="80" stroke="black" stroke-opacity="0.1"/>
<path fill-rule="evenodd" clip-rule="evenodd" d="M47.2173 42.575H41.5823V51.315C41.1223 51.315 40.6623 51.43 40.3173 51.545V42.805C40.3173 42.345 40.6623 42 41.1223 42H56.9923C57.4523 42 57.7973 42.345 57.7973 42.805V51.545C57.4523 51.315 56.9923 51.315 56.5323 51.315V42.575H50.8973C50.2073 42.575 49.6323 42.92 49.4023 43.495V53.27C49.6323 52.81 50.2073 52.465 50.8973 52.465H54.0023C53.5423 53.155 53.1973 53.96 53.1973 54.765H45.0323C45.0323 53.96 44.6873 53.04 44.1123 52.465C45.5902 52.465 46.3646 52.4389 46.8077 52.424H46.8077C47.2955 52.4076 47.3815 52.4047 47.5623 52.465C47.9073 52.465 48.4823 52.81 48.7123 53.27V43.38C48.3673 42.92 47.9073 42.575 47.2173 42.575ZM54.6918 56.0295C54.0018 54.8795 54.3468 53.4995 55.3818 52.8095C56.5318 52.1195 57.9118 52.4645 58.6018 53.3845C61.8218 58.5595 62.7418 63.5045 61.5918 67.9895C60.4418 72.3595 57.4518 75.0045 55.7268 76.2695C55.9952 77.0747 55.9896 77.7625 55.9611 81.2114C55.9408 83.6733 55.9089 87.542 55.9568 93.8644C55.9568 95.0145 55.6118 96.1645 55.1518 97.0845L56.1868 115.369C56.3018 117.324 54.9218 118.934 52.9668 119.049H52.7368C50.8968 119.049 49.4018 117.669 49.2868 115.829L49.0568 112.149L48.8268 115.829C48.7118 117.669 47.2168 119.049 45.3768 119.049H45.1468C43.1918 118.934 41.8118 117.324 41.9268 115.369L43.0768 97.5445C42.5018 96.5095 42.1568 95.2445 42.1568 93.9795C42.2023 87.9766 42.1938 84.1857 42.1883 81.7107C42.1798 77.9269 42.1782 77.2187 42.3868 76.3845C40.6618 75.1195 37.6718 72.4745 36.5218 68.1045C35.2568 63.6195 36.2918 58.6745 39.6268 53.6145C40.3168 52.4645 41.6968 52.1195 42.8468 52.8095C43.8818 53.4995 44.3418 54.8795 43.6518 56.0295C41.1218 60.0545 40.3168 63.7345 41.1218 66.9545C41.8118 69.8295 43.8818 71.6695 45.0318 72.5895C46.1818 71.7845 47.5618 71.2095 49.1718 71.2095C50.6668 71.2095 52.1618 71.7845 53.3118 72.5895C54.4618 71.7845 56.4168 69.8295 57.2218 66.9545C58.0268 63.7345 57.2218 60.0545 54.6918 56.0295ZM94.2518 67.645C93.1018 66.955 91.7218 67.415 91.1468 68.45C88.4539 73.093 86.8107 71.5125 85.3696 70.1264C85.0261 69.7959 84.694 69.4764 84.3619 69.255C81.6018 67.415 77.4618 66.725 73.5518 68.22C72.8618 68.45 71.2519 69.255 70.7919 69.83C70.2169 70.405 67.2269 73.74 65.3869 77.765C64.0068 80.64 63.2018 83.975 64.3518 86.85C65.1568 88.92 66.8818 90.415 69.4118 91.45C71.7118 92.37 73.8968 92.6 76.4268 92.715C77.6918 92.715 78.6118 91.795 78.7268 90.53C78.7268 89.265 77.8069 88.23 76.5419 88.115C74.0119 88 69.6418 87.425 68.6068 85.125C67.6868 82.94 69.5269 79.375 70.7919 77.42L70.6768 82.825C70.6768 83.17 70.9068 83.515 71.1368 83.86L70.6768 85.815C71.1368 86.045 71.7118 86.275 72.6318 86.505V83.4C72.6318 82.595 73.3218 81.905 74.1269 81.905H81.3718C82.5218 81.905 83.3268 82.825 83.3268 83.86V84.55V93.635V94.095C83.3268 95.13 82.4068 96.05 81.3718 96.05H79.7618H76.0818H74.1269C73.3218 96.05 72.6318 95.36 72.6318 94.555V93.635C71.3668 93.405 70.2169 93.175 69.1819 92.715L68.0318 98.465L68.0319 98.4651C68.4919 98.6951 68.9519 98.925 69.5268 99.155V115.6C69.5268 117.555 71.0218 119.05 72.9768 119.05C74.8168 119.05 76.4268 117.555 76.4268 115.6V100.765H76.427C77.4619 100.765 78.6119 100.765 79.6468 100.65V115.6C79.6468 117.555 81.1418 119.05 83.0968 119.05C85.0518 119.05 86.5468 117.555 86.5468 115.6V99.04C86.8696 98.9593 87.1923 98.8221 87.5547 98.6679C87.7089 98.6023 87.8702 98.5337 88.0419 98.465L84.8218 83.745C85.0518 83.4 85.1669 83.055 85.1669 82.71L85.0518 75.58C86.0868 76.04 87.1218 76.27 88.1568 76.155C90.8018 76.04 93.2168 74.2 95.1718 70.75C95.7468 69.6 95.4018 68.22 94.2518 67.645ZM84.1316 59.7105C84.1316 63.3942 81.1453 66.3805 77.4616 66.3805C73.7778 66.3805 70.7916 63.3942 70.7916 59.7105C70.7916 56.0267 73.7778 53.0405 77.4616 53.0405C81.1453 53.0405 84.1316 56.0267 84.1316 59.7105ZM49.0562 70.0604C52.3588 70.0604 55.0362 67.3831 55.0362 64.0804C55.0362 60.7777 52.3588 58.1004 49.0562 58.1004C45.7535 58.1004 43.0762 60.7777 43.0762 64.0804C43.0762 67.3831 45.7535 70.0604 49.0562 70.0604ZM73.6671 93.6349C74.5871 93.7499 75.5071 93.8649 76.4271 93.8649C77.8071 94.0949 79.8771 92.7149 79.9921 90.5299C79.9921 88.6899 78.6121 87.0799 76.6571 86.9649C75.5071 86.8499 74.4721 86.7349 73.6671 86.6199V84.5499V83.1699C73.6671 82.9399 73.7821 82.8249 73.8971 82.8249H74.9321V86.3899L76.0821 86.0449L77.1171 86.3899V83.9749V82.8249H81.7171C82.0621 82.8249 82.4071 83.0549 82.4071 83.5149V93.6349V94.3249C82.4071 94.6699 82.0621 95.0149 81.7171 95.0149H80.3371H75.7371H74.0121C73.7821 95.0149 73.6671 94.8999 73.6671 94.6699V93.6349ZM47.4462 45.4502C47.5612 45.4502 47.7912 45.3352 47.7912 45.1052C47.7912 44.4152 47.2162 43.8402 46.5262 43.8402H43.4212C43.3062 43.8402 43.0762 43.9552 43.0762 44.1852C43.0762 44.3002 43.1912 44.5302 43.4212 44.5302H46.5262C46.8712 44.5302 47.2162 44.8752 47.2162 45.2202V45.3352C47.1012 45.3352 47.2162 45.4502 47.4462 45.4502ZM46.4118 46.3699H43.3068C43.0768 46.3699 42.9618 46.2549 43.0768 46.2549C43.0768 46.0249 43.3068 45.9099 43.4218 45.9099H46.5268C47.2168 45.9099 47.7918 46.4849 47.7918 47.1749C47.7918 47.4049 47.5618 47.5199 47.4468 47.5199C47.2168 47.5199 47.1018 47.2899 47.1018 47.1749V47.0599C47.1018 46.7149 46.7568 46.3699 46.4118 46.3699ZM43.3068 48.4405H46.4118C46.7568 48.4405 47.1018 48.7855 47.1018 49.1305V49.2455C47.1018 49.3605 47.2168 49.5905 47.4468 49.5905C47.5618 49.5905 47.7918 49.4755 47.7918 49.2455C47.7918 48.5555 47.2168 47.9805 46.5268 47.9805H43.4218C43.3068 47.9805 43.0768 48.0955 43.0768 48.3255C42.9618 48.2105 43.0768 48.4405 43.3068 48.4405ZM46.4118 50.395H43.3068C43.0768 50.395 42.9618 50.28 43.0768 50.28C43.0768 50.05 43.3068 49.935 43.4218 49.935H46.5268C47.2168 49.935 47.7918 50.51 47.7918 51.2C47.7918 51.43 47.5618 51.545 47.4468 51.545C47.2168 51.545 47.1018 51.315 47.1018 51.2V51.085C47.1018 50.74 46.7568 50.395 46.4118 50.395ZM55.267 43.8402H52.162C51.472 43.8402 50.897 44.4152 50.897 45.1052C50.897 45.2202 51.012 45.4502 51.242 45.4502C51.357 45.4502 51.587 45.3352 51.587 45.1052C51.587 44.7602 51.932 44.4152 52.277 44.4152H54.232H55.382C55.497 44.4152 55.727 44.3002 55.727 44.0702C55.6391 44.0263 55.568 43.9824 55.5073 43.9449C55.4091 43.8842 55.338 43.8402 55.267 43.8402ZM52.1613 45.7947H55.2663C55.3813 45.7947 55.4963 45.9097 55.6113 46.0247C55.6113 46.2547 55.3813 46.3697 55.2663 46.3697H54.1163H52.1613C51.8163 46.3697 51.4713 46.7147 51.4713 47.0597V47.1747C51.4713 47.4047 51.2413 47.5197 51.1263 47.5197C50.8963 47.5197 50.7813 47.2897 50.7813 47.1747C50.7813 46.3697 51.3563 45.7947 52.1613 45.7947ZM55.267 47.8648H52.162C51.472 47.8648 50.897 48.4398 50.897 49.1298C50.897 49.2448 51.012 49.4748 51.242 49.4748C51.357 49.4748 51.587 49.3598 51.587 49.1298V49.0148C51.587 48.6698 51.932 48.3248 52.277 48.3248H54.232H55.382C55.497 48.3248 55.727 48.2098 55.727 47.9798C55.5922 47.9798 55.497 47.9404 55.418 47.9077C55.3622 47.8846 55.3146 47.8648 55.267 47.8648ZM52.162 49.8198H55.267C55.3146 49.8198 55.3622 49.8395 55.418 49.8626C55.497 49.8953 55.5922 49.9348 55.727 49.9348C55.727 50.1648 55.497 50.2798 55.382 50.2798H54.232H52.277C51.932 50.2798 51.587 50.6248 51.587 50.9698V51.0848C51.587 51.3148 51.357 51.4298 51.242 51.4298C51.012 51.4298 50.897 51.1998 50.897 51.0848C50.897 50.3948 51.472 49.8198 52.162 49.8198ZM124.346 89.3014C124.346 89.3014 125.788 88.1681 123.419 86.8289C123.419 86.8289 122.286 85.7987 120.122 85.0775C120.122 85.0775 118.68 84.0473 117.753 82.605L117.238 83.1201C117.65 83.9443 118.165 84.7685 118.68 85.1805C118.68 85.1805 117.238 85.4896 116.826 86.2108L116.002 84.2534V86.4168L116.311 87.344C116.311 87.3499 116.302 87.3877 116.287 87.4532C116.037 88.5356 114.038 97.184 120.74 94.6585C120.74 94.6585 126.716 92.0829 124.346 89.3014ZM114.996 87.3476C115.029 89.1609 115.042 89.9094 114.661 91.0525C115.176 95.7915 116.722 111.554 116.516 116.499C116.31 118.044 114.97 119.28 113.425 119.28H113.116C111.365 119.074 110.128 117.529 110.334 115.881C110.643 112.893 109.819 103.106 109.201 96.4096H109.098H108.995C108.377 103.106 107.553 112.893 107.862 115.881C107.965 117.632 106.729 119.074 105.08 119.28H104.771C103.226 119.28 101.887 118.044 101.681 116.499C101.195 112.325 102.356 100.103 102.923 94.1368C102.958 93.7709 102.99 93.4285 103.02 93.113C103.055 92.7939 103.091 92.5236 103.122 92.2853L103.122 92.2851C103.182 91.8311 103.226 91.4934 103.226 91.1556C102.901 90.1155 102.904 89.6086 102.925 86.2445C102.937 84.2771 102.955 81.3325 102.917 76.7327C102.808 77.0231 102.686 77.3135 102.561 77.6129L102.561 77.6129L102.561 77.6131L102.561 77.6133L102.561 77.6134C102.33 78.1636 102.087 78.7442 101.887 79.4112C100.959 82.0897 100.238 85.3864 99.9292 89.3012C99.8262 90.3314 98.899 91.1556 97.8688 91.1556H97.6627C96.5295 91.0525 95.7053 90.0223 95.8084 88.8891C96.9416 74.4662 103.741 67.1517 104.462 66.7396C104.874 66.1215 106.935 64.6792 109.098 64.6792C110.025 64.6792 110.849 64.8853 111.674 65.2973H111.777C111.777 66.7396 111.777 68.0789 112.086 69.8303C112.395 72.0967 113.116 74.7753 114.558 77.1447C114.146 77.6598 113.631 78.1749 112.91 78.7931L112.704 74.7753C112.704 74.3672 112.3 74.0602 111.892 74.0542C112.14 74.0591 106.006 74.2602 105.904 74.2602C105.389 74.2602 105.08 74.5692 105.08 75.0843V76.3206H103.947C103.432 76.4236 103.123 76.8357 103.123 77.2478L103.741 84.0471C103.844 84.4592 104.153 84.7683 104.565 84.7683H106.523C106.523 85.3864 106.729 86.0045 107.038 86.5196C107.965 87.9619 109.922 88.374 111.365 87.4468C112.704 86.6227 113.94 85.7985 114.97 84.9743C114.97 85.9393 114.984 86.709 114.996 87.347V87.3476ZM108.48 63.4424C112.178 63.4424 115.176 60.4444 115.176 56.7461C115.176 53.0478 112.178 50.0497 108.48 50.0497C104.781 50.0497 101.783 53.0478 101.783 56.7461C101.783 60.4444 104.781 63.4424 108.48 63.4424ZM110.748 77.0413C110.748 76.5312 110.343 76.2231 109.935 76.2172C110.098 76.2205 106.213 76.3201 106.112 76.3201V75.2899C105.7 75.2899 111.469 75.0839 111.572 75.0839L111.778 79.6168C111.623 79.7198 111.469 79.8486 111.314 79.9774L111.314 79.9774L111.314 79.9775C111.16 80.1062 111.005 80.2349 110.851 80.3379L110.748 77.0413ZM104.257 77.4535L104.875 83.8408H106.832C107.128 83.028 107.635 82.6392 107.937 82.4083C108.056 82.3172 108.142 82.2507 108.172 82.1924C108.37 82.0435 108.545 81.9424 108.776 81.8084C109.025 81.6644 109.34 81.4824 109.82 81.1622L109.717 77.3505C109.614 77.2474 104.154 77.4535 104.257 77.4535ZM114.353 74.8775C113.013 71.9929 112.704 68.7992 112.601 65.7086C113.22 65.9146 113.941 66.2237 114.868 66.7388C117.649 68.3871 119.916 70.7566 120.328 73.8472C120.946 79.3074 115.486 83.7372 110.953 86.6218C109.82 87.24 108.687 86.8279 108.068 86.0037C107.45 85.0765 107.759 83.7372 108.687 83.1191C112.91 80.4406 118.371 75.9077 115.074 72.1989V76.3197C114.971 76.2167 114.559 75.3926 114.353 74.8775Z" fill="black"/>
</svg>
