<svg width="160" height="160" viewBox="0 0 160 160" fill="none" xmlns="http://www.w3.org/2000/svg">
<circle cx="80" cy="80" r="80" fill="#F8F8F9"/>
<circle cx="80" cy="80" r="79.5" stroke="black" stroke-opacity="0.1"/>
<path d="M61.0082 86.3857C58.6317 91.5708 57.2274 98.5923 56.3632 109.719C56.2552 111.447 57.5515 113.067 59.3879 113.175C59.4959 113.175 59.6039 113.175 59.6039 113.175C61.3323 113.175 62.7366 111.879 62.8446 110.151C63.4927 102.049 63.9248 100.753 63.9248 100.213C63.7088 96.864 63.8168 93.4072 64.1409 89.5184C62.8446 88.8703 61.7644 87.682 61.0082 86.3857Z" fill="black"/>
<path d="M61.0087 71.0466C61.1168 68.8861 61.4408 64.5652 61.4408 64.7812C59.6045 67.8059 57.7681 67.9139 55.8237 66.5096L50.7466 67.4818C53.5552 70.8305 57.1199 72.883 61.0087 71.0466Z" fill="black"/>
<path d="M55.0667 65.8612L59.0635 65.1051L55.6068 54.1948L55.1747 54.3028L54.3105 54.0868L52.3661 54.7349L51.0698 52.3584L47.073 56.2472L46.8569 57.2194L49.0174 63.5928L49.9896 66.2933L50.8538 66.7254L55.0667 65.8612Z" fill="black"/>
<path d="M68.0295 54.9507C68.4616 55.0587 68.8937 55.1667 69.3258 55.1667C69.8659 55.1667 70.406 55.1667 70.9461 55.0587C73.7547 54.5186 76.0232 52.2501 76.2392 49.2255C76.5633 45.6607 73.8627 42.5281 70.298 42.312C66.7332 41.988 63.6006 44.6885 63.3845 48.2533C63.1685 51.3859 65.1129 54.0865 68.0295 54.9507Z" fill="black"/>
<path d="M74.186 100.536C72.4577 102.373 72.3496 107.234 74.078 109.286C74.078 109.394 74.186 109.394 74.186 109.394H110.05C109.401 108.314 108.969 106.693 108.969 104.965C108.969 103.237 109.401 101.616 110.05 100.536H74.186Z" fill="black"/>
<path d="M78.1845 90.5981C76.4561 92.4345 76.4561 97.6196 78.1845 99.456H114.048C113.4 98.3758 112.968 96.7554 112.968 95.0271C112.968 93.2987 113.4 91.6784 114.048 90.5981H78.1845Z" fill="black"/>
<path d="M114.047 70.6143H85.961C85.853 71.5865 85.2048 72.4506 84.3407 72.8827C76.0229 77.4197 77.2112 76.7716 76.9951 76.8796C77.2112 77.9598 77.6433 78.824 78.1834 79.4721H114.047C113.399 78.3919 112.967 76.7716 112.967 75.0432C112.967 73.3148 113.399 71.8025 114.047 70.6143Z" fill="black"/>
<path d="M74.5108 80.5518C74.5108 80.5518 74.5108 80.6598 74.4028 80.6598C73.1065 82.7122 73.2145 87.5732 74.5108 89.4096H101.517C100.436 87.0331 100.436 82.9283 101.517 80.5518C89.2019 80.5518 80.7761 80.5518 74.5108 80.5518Z" fill="black"/>
<path d="M71.9183 87.8975C72.1343 87.6815 72.3504 87.4654 72.5664 87.2494C71.9183 83.5766 73.1066 79.5797 74.1868 79.5797H74.5108L74.6189 77.0952C72.0263 76.231 71.5942 72.5583 74.0788 71.154L75.051 70.6138C75.159 69.7497 75.375 65.4288 75.375 65.6448C75.483 65.7528 78.6157 68.8855 78.3997 68.7775C78.5077 68.8855 79.2638 69.6416 79.1558 69.5336C79.0478 69.6416 77.4275 70.5058 77.5355 70.3978C77.4275 70.5058 76.4553 70.9379 76.5633 70.9379C76.4553 71.0459 74.8349 71.9101 74.9429 71.8021C74.8349 71.9101 73.6467 72.2342 73.5386 73.6385C73.4306 75.2588 75.159 76.231 75.8071 76.015C76.7793 76.015 78.1836 74.8267 83.8008 71.9101C84.557 71.478 84.881 70.7219 84.881 69.9657C84.881 69.4256 84.557 68.7775 84.2329 68.4534C84.1249 68.3454 82.3965 66.617 82.5045 66.725L76.3472 60.4597L73.9707 58.0832C73.8627 57.9752 73.7547 57.8672 73.6467 57.7591C72.5664 56.7869 71.1621 56.0308 69.5418 55.9228C65.977 55.7067 62.9524 58.4073 62.6283 61.972C61.5481 78.1754 61.3321 80.876 61.224 82.3883C61.116 83.2525 61.3321 84.1167 61.5481 84.9809C62.1962 86.8173 63.6005 88.2216 65.2209 88.7617C64.5727 96.2152 64.5728 102.697 66.5172 110.15C66.9493 111.663 68.2455 112.635 69.6498 112.635C69.9739 112.635 70.1899 112.635 70.514 112.527C71.9183 112.203 72.8905 110.906 72.9985 109.502C72.9985 109.178 72.9985 108.854 72.8905 108.53C71.1621 102.156 71.0541 94.5949 71.9183 87.8975Z" fill="black"/>
</svg>
