<svg width="32" height="32" viewBox="0 0 32 32" fill="none" xmlns="http://www.w3.org/2000/svg">
<path d="M21.8438 26.9999H6.1562C5.96517 26.9999 5.78086 26.9125 5.63852 26.7545C5.49618 26.5964 5.40581 26.3788 5.38472 26.1433L4.00475 10.7358C3.99269 10.6012 4.00366 10.465 4.03693 10.336C4.0702 10.207 4.12503 10.0882 4.19784 9.98725C4.27065 9.88633 4.35979 9.80561 4.45946 9.75034C4.55912 9.69507 4.66706 9.6665 4.77623 9.6665H23.2238C23.3329 9.6665 23.4409 9.69507 23.5405 9.75034C23.6402 9.80561 23.7294 9.88633 23.8022 9.98725C23.875 10.0882 23.9298 10.207 23.9631 10.336C23.9963 10.465 24.0073 10.6012 23.9953 10.7358L22.6153 26.1433C22.5942 26.3788 22.5038 26.5964 22.3615 26.7545C22.2191 26.9125 22.0348 26.9999 21.8438 26.9999Z" fill="white" stroke="#A1D551" stroke-linecap="round" stroke-linejoin="round"/>
<path d="M9.62476 13C9.62476 10.3479 10.0857 7.80431 10.9062 5.92894C11.7266 4.05357 12.8394 3 13.9998 3C15.1601 3 16.2729 4.05357 17.0933 5.92894C17.9138 7.80431 18.3748 10.3479 18.3748 13" stroke="#A1D551" stroke-linecap="round" stroke-linejoin="round"/>
<circle cx="21" cy="22" r="6" fill="white" stroke="#A1D551" stroke-linecap="round" stroke-linejoin="round"/>
<path d="M18 22L20.5 24.5L24 20" stroke="#A1D551" stroke-linecap="round" stroke-linejoin="round"/>
</svg>
